HIERARCHY
ROOT Hips
{
	OFFSET 0.00000 0.00000 0.00000
	CHANNELS 6 Xposition Yposition Zposition Yrotation Zrotation Xrotation 
	JOINT Lumbar
	{
		OFFSET 0 0 0
		CHANNELS 3 Zrotation Xrotation Yrotation
		JOINT Neck
		{
			OFFSET 0.00 0.2701 0.00
			CHANNELS 3 Zrotation Xrotation Yrotation
			End Site
			{
				OFFSET 0.00 0.1379 0.00
			}
		}
		JOINT RightShoulder
		{
			OFFSET 0.0119 0.2289 0.1181
			CHANNELS 3 Zrotation Xrotation Yrotation
			JOINT RightElbow
			{
				OFFSET 0.00 -0.1475 0.00
				CHANNELS 2 Zrotation Yrotation
				JOINT RightWrist
				{
					OFFSET 0.00 -0.1605 0.00
					CHANNELS 2 Zrotation Xrotation
					End Site
					{
						OFFSET 0.0040 -0.1068 0.0006
					}
				}
			}
		}
		JOINT LeftShoulder
		{
			OFFSET 0.0119 0.2289 -0.1181
			CHANNELS 3 Zrotation Xrotation Yrotation
			JOINT LeftElbow
			{
				OFFSET 0.00 -0.1475 0.00
				CHANNELS 2 Zrotation Yrotation
				JOINT LeftWrist
				{
					OFFSET 0.00 -0.1605 0.00
					CHANNELS 2 Zrotation Xrotation
					End Site
					{
						OFFSET 0.0040 -0.1068 -0.0006
					}
				}
			}
		}
	}
	JOINT RightHip
	{
		OFFSET 0.0316 -0.0424 0.0458
		CHANNELS 3 Zrotation Xrotation Yrotation
		JOINT RightKnee
		{
			OFFSET 0.00 -0.2438 0.00
			CHANNELS 1 Zrotation
			JOINT RightAnkle
			{
				OFFSET 0.00 -0.2449 0.00
				CHANNELS 3 Zrotation Xrotation Yrotation
				End Site
				{
					OFFSET 0.1237 -0.0542 0.0051
				}
			}
		}
	}
	JOINT LeftHip
	{
		OFFSET 0.0316 -0.0424 -0.0458
		CHANNELS 3 Zrotation Xrotation Yrotation
		JOINT LeftKnee
		{
			OFFSET 0.00 -0.2438 0.00
			CHANNELS 1 Zrotation
			JOINT LeftAnkle
			{
				OFFSET 0.00 -0.2449 0.00
				CHANNELS 3 Zrotation Xrotation Yrotation
				End Site
				{
					OFFSET 0.1237 -0.0542 -0.0051
				}
			}
		}
	}
}
MOTION
Frames: 11
Frame Time: 0.02
0.81674 0.00064 -0.45892 -387.10525 -35.56776 -8.76 38.0731 0.6815 3.35492 4.56053 11.13416 -2.11994 65.54756 -11.02954 18.55809 123.45749 117.0091 -55.81089 -6.53788 -61.77857 59.21601 -37.35501 112.40101 -133.26705 -50.17957 10.14814 39.82838 -7.55058 -12.82291 -22.29296 -6.88633 -1.78568 -3.1187 30.55521 -1.97262 6.64163 -11.14 -6.3847 2.21773 3.32563
0.822 0.00069 -0.457 -387.17449 -35.56132 -8.88166 37.96105 0.91525 2.95935 4.54031 10.54964 -2.11994 67.06236 -10.91933 18.79402 122.56589 116.67653 -55.30134 -6.53034 -61.68487 59.41647 -37.44912 112.27007 -133.15431 -49.87528 10.11168 41.85732 -7.50747 -12.58323 -21.84885 -6.85213 -1.72922 -3.0912 28.88653 -2.01233 1.35358 -9.07822 -5.07055 8.10766 6.19661
0.8273 0.00066 -0.45492 -387.08731 -35.58705 -8.91778 37.89093 1.11722 2.55352 4.50357 9.86015 -2.11994 68.52784 -10.84041 19.13741 121.64877 115.92542 -54.4688 -6.49384 -61.20902 59.65366 -37.85964 112.05233 -131.84966 -48.63473 9.90204 43.88084 -7.48872 -12.11784 -21.45115 -6.83671 -1.69617 -3.07673 27.13853 -2.08606 -4.99606 -6.84389 -3.37796 15.3129 9.71218
0.83261 0.00065 -0.4529 -387.06105 -35.60022 -8.98707 37.80706 1.33222 2.15298 4.47755 9.21483 -2.11994 70.02119 -10.76241 19.4293 120.74327 115.36877 -53.79143 -6.46971 -60.89952 59.85885 -38.13051 111.86153 -131.04586 -47.78177 9.76972 45.90291 -7.46907 -11.75482 -21.06362 -6.80905 -1.65314 -3.05645 25.4551 -2.14153 -10.38435 -4.7488 -1.86638 21.31262 12.64341
0.83781 0.00071 -0.45095 -387.07964 -35.60461 -9.08023 37.70147 1.5536 1.75078 4.43362 8.58172 -2.11994 71.49134 -10.61331 19.73426 119.8362 114.79754 -53.08613 -6.44881 -60.62751 60.12517 -38.37615 111.72371 -130.41629 -47.0914 9.64336 47.94839 -7.40846 -11.39002 -20.53634 -6.79655 -1.60065 -3.03251 23.6522 -2.20962 -17.74817 -2.39625 -0.31143 29.81347 16.77431
0.84326 0.00061 -0.44882 -386.96635 -35.63475 -9.10297 37.65075 1.7537 1.35012 4.42548 7.89982 -2.11994 73.00058 -10.62381 20.03839 118.92511 114.15168 -52.35287 -6.41411 -60.18664 60.27382 -38.74949 111.45607 -129.169 -45.85849 9.46765 49.93565 -7.43742 -10.97551 -20.31278 -6.75767 -1.57616 -3.02059 22.07788 -2.25909 -21.31307 -0.53842 1.23734 33.50179 18.59953
0.84937 0.0001 -0.44627 -386.53437 -35.73125 -8.95819 37.74285 1.90629 0.94523 4.51158 7.10244 -2.11994 74.59964 -11.05023 20.29456 118.03121 113.45885 -51.70575 -6.3518 -59.34051 60.09451 -39.43622 110.83667 -126.13201 -43.10492 9.14275 51.831 -7.71661 -10.48978 -20.93358 -6.63439 -1.6211 -3.03745 21.1681 -2.24977 -13.56015 -0.09969 2.72373 22.8422 13.55105
0.85575 -0.00058 -0.44353 -385.9737 -35.85234 -8.74462 37.88885 2.03787 0.54406 4.63668 6.26125 -2.11994 76.24478 -11.63954 20.54934 117.13053 112.69765 -51.0284 -6.27629 -58.34162 59.79562 -40.23585 110.09238 -122.56765 -39.87363 8.78183 53.65482 -8.08283 -9.96072 -21.85655 -6.48518 -1.69456 -3.06653 20.48887 -2.21996 -2.05421 -0.16321 4.18301 7.43412 6.22581
0.86202 -0.0012 -0.44085 -385.46689 -35.95977 -8.55852 38.00845 2.17682 0.14804 4.74967 5.44442 -2.11994 77.88856 -12.16712 20.81689 116.21894 111.92744 -50.30643 -6.20432 -57.43347 59.54728 -40.95929 109.41423 -119.5012 -37.03191 8.47539 55.4676 -8.4038 -9.44435 -22.63136 -6.35237 -1.7576 -3.09137 19.69456 -2.19921 7.36411 0.01031 5.62209 -5.3211 0.17046
0.8682 -0.00176 -0.43831 -384.97355 -36.07752 -8.38484 38.13552 2.32397 -0.27741 4.83703 4.60444 -2.11994 79.44896 -12.64643 21.03681 115.36539 111.30097 -49.80932 -6.14062 -56.42506 59.3134 -41.79519 108.69236 -115.35263 -33.46041 8.01003 57.46588 -8.75156 -8.94783 -23.45347 -6.2007 -1.81142 -3.11145 18.9396 -2.182 18.36501 0.15359 7.20702 -20.1323 -6.85927
0.87466 -0.00249 -0.43541 -384.42437 -36.18082 -8.17079 38.26184 2.44932 -0.64029 4.98888 3.8045 -2.11994 81.1934 -13.26124 21.35443 114.38979 110.37793 -48.85376 -6.05829 -55.5905 59.02401 -42.42387 108.0344 -113.28656 -31.26924 7.85944 59.0586 -9.06152 -8.40486 -24.24809 -6.08195 -1.8899 -3.14372 18.16019 -2.15053 26.96615 0.23728 8.48268 -31.79012 -12.40368
